<svg width="181" height="114" viewBox="0 0 181 114" fill="none" xmlns="http://www.w3.org/2000/svg">
<path fill-rule="evenodd" clip-rule="evenodd" d="M87.0565 113.39H15.6525V64.2829C15.6525 53.3798 24.5033 44.5494 35.4316 44.5494H67.2774C78.2057 44.5494 87.0565 53.3798 87.0565 64.2829V113.39Z" fill="#5D80CB"/>
<path fill-rule="evenodd" clip-rule="evenodd" d="M103.947 53.9761C103.99 46.8493 101.314 35.9604 71.8878 41.3836C56.8186 44.0526 55.5807 50.6966 58.8108 57.0852C52.9624 60.0097 42.3899 66.8384 33.226 81.0209C19.708 101.919 32.7565 113.461 40.4404 113.461C48.1244 113.461 133.573 112.793 133.573 112.793C133.573 112.793 136.903 79.9136 103.947 53.9761Z" fill="#FDBA4D"/>
<path fill-rule="evenodd" clip-rule="evenodd" d="M68.2734 49.788L65.1998 52.9397C65.1998 52.9397 79.8278 64.0416 84.5805 90.7741C87.6683 108.151 86.6153 110.096 86.6153 110.096L95.6796 109.613C95.6796 109.613 90.6281 80.7228 93.7728 71.5801C96.9175 62.4374 94.0432 52.1731 91.9087 50.5121C89.7743 48.8511 68.2734 49.788 68.2734 49.788Z" fill="white"/>
<path fill-rule="evenodd" clip-rule="evenodd" d="M71.8308 40.8725L71.4893 46.7215L68.5865 50.0436C68.5865 50.0436 77.1669 55.339 85.3774 64.6662C85.3774 64.6662 92.0937 57.5963 93.2748 46.5086L77.5369 48.4535L76.2989 42.3205L71.8308 40.8725Z" fill="white"/>
<path fill-rule="evenodd" clip-rule="evenodd" d="M71.4047 40.8477L71.0717 46.5512L68.2647 49.7637C68.0916 49.9618 68.1379 50.2675 68.3619 50.4058L68.4484 50.4601L68.6593 50.595L68.708 50.6266C68.9938 50.8121 69.3259 51.0333 69.7002 51.2898C70.7304 51.9956 71.8744 52.8257 73.105 53.776L73.253 53.8907C76.9314 56.7444 80.6101 60.0653 84.0427 63.8175C84.3845 64.1912 84.7226 64.5678 85.0566 64.9473C85.2224 65.1356 85.5144 65.1411 85.6872 64.9593L85.7682 64.8715L85.8535 64.7766C85.9128 64.7098 85.9781 64.6351 86.0488 64.5525C86.3302 64.2239 86.6431 63.8366 86.9795 63.3924C87.9383 62.1262 88.8964 60.6559 89.7902 58.9967C91.8213 55.2268 93.2197 51.0558 93.6993 46.5536L93.7012 46.5289C93.7142 46.2672 93.4869 46.0532 93.2223 46.0859L77.8771 47.9822L76.7174 42.2365C76.687 42.0857 76.5774 41.963 76.4308 41.9155L71.9627 40.4674C71.6968 40.3812 71.4209 40.5692 71.4047 40.8477ZM72.2247 41.4479L75.9297 42.6486L77.1184 48.5376L77.1242 48.5625C77.1783 48.7671 77.3763 48.9026 77.5894 48.8762L92.7887 46.9978L92.7853 47.0256C92.2652 51.1965 90.9347 55.0731 89.0382 58.5934C88.166 60.2124 87.2317 61.6463 86.2983 62.8789L86.2288 62.9702L86.0922 63.1477C85.8669 63.4378 85.6546 63.699 85.4582 63.9305L85.3781 64.0242L85.1886 63.812C85.0178 63.6217 84.846 63.4321 84.6733 63.2433C81.2058 59.4529 77.4917 56.1 73.7771 53.2182C72.4765 52.2092 71.2684 51.3309 70.1835 50.5876L69.9104 50.4016C69.6977 50.2576 69.5001 50.1261 69.3185 50.0071L69.2334 49.9513L71.8111 47.0014C71.8733 46.9303 71.91 46.8406 71.9155 46.7463L72.2247 41.4479Z" fill="#5D80CB"/>
<path fill-rule="evenodd" clip-rule="evenodd" d="M93.8013 96.2256C96.1207 96.7651 97.9848 97.2762 98.497 97.6595C100.162 98.923 107.092 105.681 107.334 106.788C107.59 107.895 105.555 108.506 103.876 106.802L98.9381 102.103C98.9381 102.103 103.961 107.81 104.36 108.69C104.758 109.571 102.78 111.104 99.8773 107.427C96.9745 103.75 96.5049 103.722 96.5049 103.722C96.5049 103.722 99.8204 108.335 100.261 109.386C100.703 110.437 97.8994 111.416 95.3381 106.575L79.9844 105.908L80.8808 93.7412C80.8951 93.7412 88.5363 95.0189 93.8013 96.2256Z" fill="white"/>
<path fill-rule="evenodd" clip-rule="evenodd" d="M80.8808 93.3153C81.2581 93.3153 89.3874 94.8006 93.5248 95.7263L93.8982 95.8109L94.4532 95.9415C96.816 96.5044 98.2176 96.9336 98.7362 97.3064L98.7555 97.3205L98.8144 97.3658C99.6955 98.0506 101.767 99.9858 103.686 101.916L104.102 102.336C106.273 104.543 107.62 106.101 107.75 106.692C107.94 107.517 107.309 108.167 106.379 108.272C105.67 108.353 104.884 108.125 104.171 107.616L104.106 107.568L104.182 107.668C104.46 108.035 104.645 108.307 104.73 108.477L104.749 108.515C105.106 109.304 104.401 110.15 103.374 110.193C102.481 110.23 101.458 109.726 100.393 108.656L100.31 108.572L100.329 108.605C100.465 108.834 100.566 109.022 100.631 109.165L100.655 109.221C100.845 109.673 100.686 110.145 100.279 110.423C99.9122 110.672 99.3909 110.738 98.827 110.604C97.574 110.307 96.256 109.117 95.102 107.035L95.0772 106.99L79.9658 106.333C79.7336 106.323 79.5538 106.13 79.5575 105.901L79.5586 105.877L80.4551 93.71C80.4715 93.4875 80.6572 93.3153 80.8808 93.3153ZM81.2723 94.2353L80.4423 105.501L95.3566 106.15C95.4987 106.156 95.6277 106.232 95.7016 106.352L95.7156 106.376C96.7975 108.421 97.9915 109.531 99.0244 109.776C99.6438 109.922 99.9394 109.721 99.8678 109.551C99.7126 109.181 99.106 108.221 98.2064 106.899L98.0547 106.676C97.6918 106.146 97.3059 105.591 96.9172 105.039L96.4726 104.41L96.158 103.97C95.9485 103.678 96.1719 103.275 96.5307 103.296C96.9302 103.321 97.8368 104.183 99.8804 106.745L100.213 107.163C101.426 108.701 102.529 109.376 103.339 109.342C103.816 109.322 104.05 109.041 103.971 108.866L103.959 108.841C103.787 108.504 102.866 107.345 101.501 105.728L101.335 105.532L100.974 105.107C100.608 104.678 100.23 104.238 99.8486 103.797L99.2491 103.106L98.6174 102.384C98.2636 101.982 98.8211 101.437 99.2145 101.778L99.2328 101.795L104.18 106.504C104.86 107.193 105.643 107.499 106.282 107.426C106.756 107.372 106.978 107.144 106.916 106.879C106.737 106.058 100.264 99.536 98.2409 98.0002L98.2114 97.9794C97.8036 97.7043 96.4216 97.2867 94.2255 96.7631L93.7031 96.64L93.288 96.546C91.2006 96.0768 88.6512 95.5692 85.8644 95.0545L84.5647 94.8173C84.0637 94.727 83.5432 94.6344 83.0569 94.5484L81.2723 94.2353Z" fill="#5D80CB"/>
<path fill-rule="evenodd" clip-rule="evenodd" d="M53.9585 113.39C53.9585 113.39 78.5899 111.729 81.3504 111.019C84.1109 110.309 83.0864 108.293 85.0928 107.526C87.0992 106.76 87.7253 106.135 87.7253 106.135C85.1355 102.004 87.7253 95.1751 87.7253 95.1751C87.7253 95.1751 87.0422 94.9905 84.9505 94.5646C82.8587 94.1387 83.5275 91.9808 80.6959 91.7253C77.8499 91.484 53.4747 94.2523 53.4747 94.2523" fill="#FDBA4D"/>
<path fill-rule="evenodd" clip-rule="evenodd" d="M66.1832 92.4532L67.8421 92.2849C74.9323 91.5724 79.5489 91.2006 80.7343 91.3011C82.0991 91.4243 82.761 91.8749 83.4758 92.8727L83.6067 93.0585C84.1061 93.7703 84.3924 94.0163 85.0358 94.1473L85.509 94.2445C86.2058 94.3888 86.7713 94.5118 87.2181 94.6146L87.5047 94.6816L87.7402 94.7391C87.7868 94.7508 87.8186 94.7591 87.8368 94.764C88.0718 94.8275 88.2044 95.0728 88.1329 95.3014L88.0785 95.4531L88.0448 95.5501C88.0158 95.6346 87.9847 95.7282 87.9518 95.8303C87.8198 96.2404 87.6876 96.7008 87.5642 97.2004C87.1473 98.8879 86.9309 100.591 87.021 102.169C87.1041 103.625 87.4477 104.889 88.0872 105.909C88.1926 106.077 88.1677 106.296 88.0271 106.436L88.0025 106.46C87.9697 106.49 87.9225 106.53 87.8597 106.58C87.7346 106.678 87.5778 106.787 87.3863 106.905C86.8733 107.223 86.1998 107.554 85.3449 107.886L85.2454 107.924C84.6509 108.151 84.4058 108.424 84.0503 109.146L83.9107 109.434L83.8565 109.543C83.3381 110.562 82.7402 111.101 81.4569 111.431L81.3971 111.446C80.3734 111.689 77.0652 112.036 71.9163 112.471L70.5305 112.586C69.6622 112.657 68.7552 112.73 67.8134 112.804L66.6193 112.898C64.3448 113.074 61.9679 113.25 59.5755 113.423L57.3291 113.583L54.7078 113.765L53.9873 113.815C53.7521 113.83 53.5485 113.653 53.5326 113.418C53.5173 113.192 53.6821 112.995 53.9048 112.967L56.7037 112.773L58.2473 112.664C61.0633 112.463 63.8792 112.255 66.5531 112.048L68.2559 111.915C69.2684 111.835 70.2384 111.756 71.1612 111.679L72.4561 111.57C77.2796 111.158 80.4009 110.823 81.2439 110.606C82.2838 110.339 82.6975 109.958 83.1196 109.109L83.2857 108.767C83.7202 107.887 84.0857 107.467 84.8883 107.149L84.9401 107.129C85.7934 106.803 86.4509 106.482 86.9364 106.181C87.0097 106.136 87.0763 106.093 87.1365 106.052L87.1687 106.03L87.1299 105.958C86.5719 104.914 86.265 103.691 86.1752 102.325L86.1686 102.217C86.073 100.543 86.2996 98.7598 86.7352 96.9966C86.8529 96.5204 86.9783 96.0781 87.1045 95.6779L87.1688 95.4775L86.7855 95.3899C86.282 95.2767 85.6466 95.1411 84.8651 94.9819C83.9964 94.8051 83.5575 94.4517 82.983 93.6536L82.814 93.4141C82.2171 92.5678 81.7632 92.2492 80.6597 92.1497C79.523 92.0533 74.6187 92.4545 67.2634 93.1994L65.9346 93.335C65.7099 93.3581 65.4838 93.3814 65.2562 93.405C63.1073 93.6273 60.901 93.8624 58.7183 94.1L56.431 94.3508L53.523 94.6755C53.2887 94.7021 53.0772 94.5342 53.0506 94.3005C53.0249 94.0751 53.1804 93.8708 53.4016 93.8327L53.4456 93.827L56.0188 93.5393C56.3336 93.5045 56.6587 93.4686 56.9934 93.4318C59.4316 93.1636 61.9252 92.8954 64.3592 92.6417L65.1681 92.5577C65.5098 92.5224 65.8483 92.4875 66.1832 92.4532Z" fill="#5D80CB"/>
<path fill-rule="evenodd" clip-rule="evenodd" d="M54.7147 86.8851C54.7378 86.651 54.9467 86.4799 55.1814 86.5029L55.2191 86.5072C55.2818 86.515 55.3718 86.5294 55.4859 86.5526C55.7113 86.5984 55.9607 86.6652 56.2281 86.757C56.9873 87.0176 57.7452 87.4264 58.452 88.0155C59.8698 89.1971 60.8953 90.9462 61.3642 93.3474C61.4093 93.5783 61.2582 93.8019 61.0268 93.8469C60.7954 93.8919 60.5713 93.7412 60.5262 93.5103C60.0945 91.2999 59.1709 89.7246 57.9047 88.6692C57.282 88.1503 56.6155 87.7908 55.9503 87.5624C55.7191 87.4831 55.5055 87.4259 55.3155 87.3872L55.2263 87.3701C55.1998 87.3653 55.1767 87.3615 55.1571 87.3585L55.0977 87.3506C54.8631 87.3276 54.6916 87.1191 54.7147 86.8851Z" fill="#5D80CB"/>
<path fill-rule="evenodd" clip-rule="evenodd" d="M85.4201 107.81C87.5829 107.001 88.2802 106.348 88.2802 106.348C85.477 101.975 88.2802 94.7492 88.2802 94.7492C88.2802 94.7492 87.5403 94.5504 85.2778 94.0961C84.3671 93.9116 83.9402 93.4289 83.556 92.9036C78.9029 98.1706 81.6919 107.413 82.9441 110.763C84.0256 109.812 83.7837 108.435 85.4201 107.81Z" fill="#5D80CB"/>
<path fill-rule="evenodd" clip-rule="evenodd" d="M103.947 53.9761C103.933 55.3106 103.833 56.5031 103.79 57.4401C103.506 63.9848 100.333 67.463 99.0662 70.0752C103.264 67.4914 107.106 61.9263 108.998 58.2635C107.433 56.8154 105.74 55.3816 103.947 53.9761Z" fill="#5D80CB"/>
<path fill-rule="evenodd" clip-rule="evenodd" d="M73.1257 71.5091C70.8775 70.4727 62.2828 63.928 58.8108 57.0994C56.5625 58.2209 53.617 59.9246 50.3157 62.409C52.749 63.8003 66.7509 71.6511 73.1684 71.5943C73.1542 71.5517 73.14 71.5233 73.1257 71.5091Z" fill="#5D80CB"/>
<path fill-rule="evenodd" clip-rule="evenodd" d="M74.5156 68.9955C74.7901 68.8639 75.1178 68.9715 75.2618 69.2354L75.2917 69.2959L75.4072 69.5408L75.5126 69.7674C75.6855 70.1413 75.8764 70.5639 76.0814 71.0289L76.1329 71.1461C76.774 72.6066 77.415 74.1704 78.0136 75.7756C78.6347 77.4411 79.1746 79.0577 79.6095 80.5913C80.1712 82.572 80.5433 84.3627 80.6932 85.9214C80.7233 86.2336 80.4939 86.5109 80.181 86.5409C79.8681 86.5708 79.5901 86.342 79.5601 86.0299C79.4175 84.5474 79.0587 82.8206 78.5141 80.9006C78.0882 79.3985 77.5578 77.8103 76.9467 76.1716C76.3561 74.588 75.7231 73.0437 75.0901 71.6017L74.9394 71.2603C74.775 70.89 74.6206 70.5497 74.4789 70.2431L74.3298 69.9235L74.2491 69.7533C74.113 69.4706 74.2323 69.1313 74.5156 68.9955Z" fill="#5D80CB"/>
<path fill-rule="evenodd" clip-rule="evenodd" d="M96.7755 69.38C97.0722 69.4485 97.2605 69.7369 97.2076 70.0327L97.1346 70.3623L97.0668 70.6781C97.0315 70.8452 96.9942 71.0257 96.9552 71.2188C96.7692 72.1398 96.5831 73.1567 96.4094 74.2394C96.0254 76.6338 95.7577 78.9972 95.6585 81.2024C95.5804 82.9366 95.6103 84.5149 95.7616 85.8999C95.7956 86.2117 95.5699 86.4919 95.2574 86.5259C94.9449 86.5599 94.664 86.3347 94.6299 86.0229C94.4717 84.5745 94.4408 82.9398 94.5213 81.1514C94.6227 78.8985 94.895 76.4938 95.2854 74.06L95.352 73.6512C95.4976 72.7726 95.6504 71.9406 95.8039 71.171L95.8393 70.9945C95.879 70.7978 95.917 70.6139 95.953 70.4434L96.0445 70.0193L96.0926 69.8052C96.1635 69.4997 96.4693 69.3093 96.7755 69.38Z" fill="#5D80CB"/>
<path fill-rule="evenodd" clip-rule="evenodd" d="M141.726 48.0276H140.773C140.375 48.0276 140.062 47.7153 140.062 47.3178V45.5006C140.062 45.1031 140.375 44.7908 140.773 44.7908H141.726C142.125 44.7908 142.438 45.1031 142.438 45.5006V47.3178C142.438 47.7153 142.125 48.0276 141.726 48.0276Z" fill="#FED188"/>
<path fill-rule="evenodd" clip-rule="evenodd" d="M138.439 48.0276H123.555C123.157 48.0276 122.844 47.7153 122.844 47.3178V45.5006C122.844 45.1031 123.157 44.7908 123.555 44.7908H138.439C138.838 44.7908 139.151 45.1031 139.151 45.5006V47.3178C139.151 47.7153 138.838 48.0276 138.439 48.0276Z" fill="#5D80CB"/>
<path fill-rule="evenodd" clip-rule="evenodd" d="M139.919 63.0904H123.555C123.157 63.0904 122.844 62.7781 122.844 62.3806V60.5634C122.844 60.1659 123.157 59.8535 123.555 59.8535H139.919C140.318 59.8535 140.631 60.1659 140.631 60.5634V62.3806C140.631 62.7781 140.318 63.0904 139.919 63.0904Z" fill="#5D80CB"/>
<path fill-rule="evenodd" clip-rule="evenodd" d="M154.22 58.0789H128.052C127.653 58.0789 127.34 57.7666 127.34 57.3691V55.5519C127.34 55.1544 127.653 54.8421 128.052 54.8421H154.22C154.618 54.8421 154.931 55.1544 154.931 55.5519V57.3691C154.931 57.7666 154.604 58.0789 154.22 58.0789Z" fill="#FED188"/>
<path fill-rule="evenodd" clip-rule="evenodd" d="M170.669 58.0789H157.194C156.796 58.0789 156.483 57.7666 156.483 57.3691V55.5519C156.483 55.1544 156.796 54.8421 157.194 54.8421H170.669C171.068 54.8421 171.381 55.1544 171.381 55.5519V57.3691C171.381 57.7666 171.054 58.0789 170.669 58.0789Z" fill="#FED188"/>
<path fill-rule="evenodd" clip-rule="evenodd" d="M175.707 53.0675H174.753C174.355 53.0675 174.042 52.7552 174.042 52.3577V50.5405C174.042 50.143 174.355 49.8306 174.753 49.8306H175.707C176.105 49.8306 176.418 50.143 176.418 50.5405V52.3577C176.418 52.741 176.105 53.0675 175.707 53.0675Z" fill="#5D80CB"/>
<path fill-rule="evenodd" clip-rule="evenodd" d="M150.663 53.0533H123.555C123.157 53.0533 122.844 52.741 122.844 52.3435V50.5263C122.844 50.1288 123.157 49.8164 123.555 49.8164H150.663C151.061 49.8164 151.374 50.1288 151.374 50.5263V52.3435C151.374 52.741 151.047 53.0533 150.663 53.0533Z" fill="#5D80CB"/>
<path fill-rule="evenodd" clip-rule="evenodd" d="M159.086 48.0276H144.202C143.804 48.0276 143.491 47.7153 143.491 47.3178V45.5006C143.491 45.1031 143.804 44.7908 144.202 44.7908H159.086C159.485 44.7908 159.798 45.1031 159.798 45.5006V47.3178C159.798 47.7153 159.471 48.0276 159.086 48.0276Z" fill="#5D80CB"/>
<path fill-rule="evenodd" clip-rule="evenodd" d="M172.064 53.0675H153.366C152.968 53.0675 152.655 52.7552 152.655 52.3577V50.5121C152.655 50.1146 152.968 49.8022 153.366 49.8022H172.064C172.462 49.8022 172.775 50.1146 172.775 50.5121V52.3577C172.775 52.741 172.448 53.0675 172.064 53.0675Z" fill="#FDBA4D"/>
<path fill-rule="evenodd" clip-rule="evenodd" d="M150.833 113.248C151.559 113.248 152.185 112.751 152.356 112.041L160.951 75.7539C161.178 74.7743 160.438 73.8374 159.428 73.8374H104.103C103.378 73.8374 102.752 74.3342 102.581 75.0441L94.8827 107.526H74.8333C74.8333 107.526 73.7234 113.248 80.1978 113.248" fill="#5D80CB"/>
<path fill-rule="evenodd" clip-rule="evenodd" d="M127.753 87.807C127.753 87.807 130.3 87.1965 130.457 89.3828C130.457 89.3828 128.436 90.2062 127.753 87.807Z" fill="white"/>
<path fill-rule="evenodd" clip-rule="evenodd" d="M132.406 93.4715C132.15 93.3011 131.88 93.1875 131.595 93.0882C131.951 92.7048 132.178 92.1938 132.178 91.6543C132.178 91.058 131.894 90.5895 131.467 90.3624C131.709 89.6383 132.107 88.602 132.406 88.2329C132.563 88.0483 132.534 87.7786 132.363 87.6366C132.178 87.4804 131.908 87.5088 131.766 87.6792C131.31 88.2045 130.841 89.5248 130.613 90.2204C130.599 90.2204 130.585 90.2204 130.57 90.2204C129.688 90.3766 128.977 91.2852 128.977 92.2364C128.977 92.5487 129.062 92.8184 129.19 93.0456C128.208 93.2869 127.241 93.8122 126.501 94.6072C124.893 96.3108 124.936 98.5823 126.586 99.6613C128.237 100.74 130.884 100.243 132.491 98.5255C134.099 96.8219 134.057 94.5504 132.406 93.4715Z" fill="white"/>
<path fill-rule="evenodd" clip-rule="evenodd" d="M23.4503 97.5885C21.132 97.5885 19.2526 99.4636 19.2526 101.777C19.2526 104.09 21.132 105.965 23.4503 105.965C25.7687 105.965 27.648 104.09 27.648 101.777C27.648 99.4636 25.7687 97.5885 23.4503 97.5885ZM23.4503 98.4404C25.2971 98.4404 26.7943 99.934 26.7943 101.777C26.7943 103.619 25.2971 105.113 23.4503 105.113C21.6035 105.113 20.1064 103.619 20.1064 101.777C20.1064 99.934 21.6035 98.4404 23.4503 98.4404Z" fill="white"/>
<path fill-rule="evenodd" clip-rule="evenodd" d="M35.9012 113.106H28.701C26.3389 113.106 24.4322 111.203 24.4322 108.847V96.6657H40.1701V108.847C40.1701 111.203 38.2491 113.106 35.9012 113.106Z" fill="#FED188"/>
<path fill-rule="evenodd" clip-rule="evenodd" d="M27.6623 103.864L30.5082 102.16C30.5509 102.132 30.5936 102.117 30.6505 102.117C30.7359 102.117 30.7928 102.146 30.8497 102.203C30.9066 102.259 30.9351 102.33 30.9351 102.401C30.9351 102.501 30.8924 102.586 30.7928 102.657L28.3453 104.119L30.7928 105.581C30.8924 105.652 30.9351 105.723 30.9351 105.837C30.9351 105.922 30.9066 105.979 30.8497 106.036C30.7928 106.092 30.7216 106.121 30.6505 106.121C30.5936 106.121 30.5509 106.107 30.5082 106.078L27.6623 104.375C27.5627 104.304 27.5057 104.218 27.5057 104.119C27.5057 104.02 27.5627 103.935 27.6623 103.864Z" fill="#2E186A"/>
<path fill-rule="evenodd" clip-rule="evenodd" d="M33.8948 101.067C33.9517 101.01 34.0229 100.982 34.094 100.982C34.1652 100.982 34.2363 101.01 34.2932 101.067C34.3502 101.124 34.3786 101.195 34.3786 101.265C34.3786 101.308 34.3644 101.351 34.3502 101.393L32.0592 107.1C32.045 107.129 32.0307 107.157 32.0023 107.186C31.9454 107.242 31.8742 107.271 31.8031 107.271C31.7319 107.271 31.6608 107.242 31.6039 107.186C31.5469 107.129 31.5185 107.058 31.5185 106.987C31.5185 106.944 31.5327 106.902 31.5469 106.859L33.8379 101.152C33.8379 101.124 33.8664 101.095 33.8948 101.067Z" fill="#2E186A"/>
<path fill-rule="evenodd" clip-rule="evenodd" d="M38.3914 104.119C38.3914 104.218 38.3344 104.304 38.2348 104.375L35.3889 106.078C35.3462 106.107 35.3035 106.121 35.2466 106.121C35.1612 106.121 35.1043 106.092 35.0474 106.036C34.9905 105.979 34.962 105.908 34.962 105.837C34.962 105.737 35.0047 105.652 35.1043 105.581L37.5518 104.119L35.1043 102.657C35.0047 102.586 34.962 102.515 34.962 102.401C34.962 102.316 34.9905 102.259 35.0474 102.203C35.1043 102.146 35.1755 102.117 35.2466 102.117C35.3035 102.117 35.3462 102.132 35.3889 102.16L38.2348 103.864C38.3344 103.935 38.3914 104.02 38.3914 104.119Z" fill="#2E186A"/>
<path fill-rule="evenodd" clip-rule="evenodd" d="M32.3865 92.3357C32.7849 96.6232 25.044 86.657 26.1255 80.8932C27.2069 75.1293 31.362 75.3564 33.098 72.1054C34.151 70.1462 34.0656 68.8685 33.8379 68.1587C33.7668 67.9315 34.0087 67.7186 34.2221 67.8321C36.2569 68.9395 41.5788 72.5455 39.8143 79.3741C36.8973 89.5248 31.5754 83.6047 32.3865 92.3357Z" fill="white"/>
<path fill-rule="evenodd" clip-rule="evenodd" d="M69.796 29.8132C69.796 29.8132 64.3318 29.9126 65.2994 34.7963C66.2813 39.68 72.3288 36.8548 72.3288 36.8548L71.5178 29.9126L69.796 29.8132Z" fill="white"/>
<path fill-rule="evenodd" clip-rule="evenodd" d="M69.8206 29.388C69.8098 29.3874 69.799 29.3872 69.7882 29.3873L69.7301 29.389C69.5646 29.3954 69.3163 29.4172 69.0097 29.4649C68.4361 29.5541 67.8618 29.7065 67.3213 29.939C65.3906 30.7696 64.3866 32.385 64.8807 34.8788C65.32 37.064 66.7382 38.0658 68.7414 38.093C69.5854 38.1044 70.4773 37.943 71.3649 37.6679C71.6258 37.5871 71.8702 37.5011 72.0936 37.4144L72.1881 37.3772C72.339 37.3169 72.4484 37.2692 72.5099 37.2405C72.6763 37.1628 72.7741 36.9875 72.7529 36.8055L71.9418 29.8633C71.9178 29.6579 71.7493 29.4993 71.5424 29.4874L69.8206 29.388ZM69.7902 30.2394L71.1353 30.317L71.8678 36.5875L71.8707 36.5864C71.6424 36.6776 71.3871 36.7691 71.1116 36.8545C70.3028 37.1052 69.4951 37.2513 68.753 37.2412C67.1277 37.2192 66.072 36.4734 65.718 34.7125C65.3074 32.6404 66.0773 31.4018 67.6593 30.7212C68.1275 30.5198 68.634 30.3854 69.1412 30.3065C69.319 30.2788 69.4837 30.2602 69.6307 30.2489L69.729 30.2422L69.7902 30.2394Z" fill="#5D80CB"/>
<path fill-rule="evenodd" clip-rule="evenodd" d="M85.3774 14.4239C86.8146 14.3104 96.6899 13.6857 97.7713 21.9056C98.8528 30.1255 97.6859 39.1973 96.7752 43.3427C95.8645 47.4882 76.9535 45.5716 75.8863 45.2025C74.819 44.8334 73.5384 43.5841 73.5384 43.5841L70.9486 30.9632C70.9628 30.9632 69.8956 15.7016 85.3774 14.4239Z" fill="white"/>
<path fill-rule="evenodd" clip-rule="evenodd" d="M85.3437 13.9993C78.6674 14.5503 74.4351 17.6556 72.2053 22.4725C71.4312 24.1447 70.9483 25.9285 70.6994 27.7374C70.5391 28.9021 70.4947 29.9018 70.5141 30.7229L70.5184 30.8735L70.5213 30.9512L70.5215 30.9726C70.5223 30.9976 70.5251 31.023 70.5304 31.0485L73.1202 43.6695C73.1373 43.7528 73.179 43.8291 73.2399 43.8886L73.3247 43.969L73.4079 44.0458C73.4517 44.0857 73.4986 44.1278 73.5484 44.1718C73.7852 44.3808 74.0401 44.5899 74.3044 44.7858C74.6189 45.0191 74.9262 45.2183 75.2211 45.3734C75.4025 45.4688 75.5777 45.5465 75.7464 45.6049C76.603 45.9011 82.0903 46.3759 86.2628 46.3911L86.3888 46.3917C92.7468 46.4005 96.7215 45.5766 97.1923 43.4339L97.2454 43.1878C97.7574 40.78 98.2092 37.5254 98.4462 34.1821C98.7522 29.8649 98.6943 25.6484 98.1946 21.8502C97.6928 18.036 95.3676 15.7209 91.8337 14.6327C90.5557 14.2392 89.1873 14.0295 87.7883 13.9636C86.8506 13.9195 86.0655 13.9423 85.3437 13.9993ZM87.748 14.8145C89.0801 14.8772 90.3791 15.0763 91.5819 15.4466C94.8199 16.4437 96.8939 18.5087 97.3481 21.961C97.8397 25.6974 97.8968 29.858 97.5945 34.122C97.3522 37.5403 96.883 40.8632 96.3583 43.2515C96.0265 44.7618 92.2339 45.548 86.3901 45.5398L86.1428 45.5387C82.0773 45.5149 76.7573 45.053 76.0261 44.8001C75.9008 44.7567 75.7645 44.6962 75.6192 44.6198C75.3672 44.4873 75.0955 44.3111 74.8137 44.1022C74.5705 43.9219 74.3339 43.7278 74.1141 43.5338L74.0257 43.4549L73.9296 43.367L71.3742 30.9137L71.3698 30.785C71.3463 29.992 71.3862 29.0087 71.5452 27.8533C71.7833 26.1229 72.2445 24.4193 72.9804 22.8296C75.0843 18.2846 79.0524 15.3733 85.4126 14.8484C86.0998 14.794 86.8506 14.7722 87.748 14.8145Z" fill="#5D80CB"/>
<path fill-rule="evenodd" clip-rule="evenodd" d="M72.7557 30.8496C73.6664 31.7582 76.1139 36.9826 76.7116 39.4102C76.7116 39.4102 82.7734 37.3659 91.4676 37.2381C91.4676 37.2381 96.2061 37.3375 98.0986 37.8912C98.0986 37.8912 97.6859 46.5086 93.8439 50.9806C90.002 55.4384 81.8911 54.189 78.0776 51.5059C74.2641 48.8227 73.638 47.545 72.7557 44.663C71.8735 41.7953 69.5399 31.0767 69.5399 31.0767L72.7557 30.8496Z" fill="#AEBFE5"/>
<path fill-rule="evenodd" clip-rule="evenodd" d="M70.2798 32.6951C70.2798 32.6951 67.7042 28.7201 66.7224 24.603C65.7833 20.7273 67.5904 16.667 71.1905 14.9208C74.2072 13.4727 76.4412 14.6085 76.4412 14.6085C76.4412 14.6085 73.2396 9.18531 78.0349 4.3868C79.7282 2.69738 82.0619 1.7604 84.4524 1.83138C90.3008 2.00174 92.1222 6.94222 92.1222 6.94222C92.1222 6.94222 98.3832 -4.54296 111.232 2.25729C112.527 2.93873 113.993 4.85529 114.69 6.1472C118.931 13.9554 104.943 23.1975 97.6717 23.9215C89.6747 24.7308 84.9932 23.3963 82.4176 21.4513C84.3244 22.6012 82.1757 34.5265 70.2798 32.6951Z" fill="#5D80CB"/>
<path fill-rule="evenodd" clip-rule="evenodd" d="M85.7414 42.6544C86.0423 42.6056 86.3264 42.8018 86.3893 43.096L86.399 43.148C86.4076 43.1907 86.4249 43.2613 86.4527 43.3513C86.5104 43.538 86.5897 43.7244 86.6919 43.8944C87.0163 44.4341 87.4731 44.6855 88.1953 44.5581C88.5048 44.5035 88.8002 44.7096 88.8549 45.0184C88.9097 45.3272 88.7031 45.6219 88.3936 45.6765C87.1691 45.8926 86.2671 45.3962 85.7155 44.4784C85.5623 44.2234 85.4478 43.9544 85.3648 43.6858C85.3143 43.5224 85.2847 43.3911 85.2709 43.306C85.2205 42.9965 85.4311 42.7047 85.7414 42.6544Z" fill="#5D80CB"/>
<path fill-rule="evenodd" clip-rule="evenodd" d="M91.6454 33.366C91.9482 33.3317 92.2225 33.5413 92.2712 33.8382L92.2751 33.8663L93.1288 41.3763C93.1728 41.7631 92.8235 42.0755 92.4468 41.9962L92.421 41.9902L89.7744 41.3088C89.47 41.2304 89.2869 40.9207 89.3655 40.617C89.4416 40.3228 89.7353 40.1422 90.0303 40.2025L90.0588 40.209L91.9044 40.6841L91.144 33.9943C91.1096 33.6921 91.3196 33.4184 91.6172 33.3699L91.6454 33.366Z" fill="#5D80CB"/>
<path d="M94.6266 35.2506C95.051 35.2506 95.395 34.7166 95.395 34.058C95.395 33.3994 95.051 32.8655 94.6266 32.8655C94.2022 32.8655 93.8582 33.3994 93.8582 34.058C93.8582 34.7166 94.2022 35.2506 94.6266 35.2506Z" fill="#5D80CB"/>
<path d="M87.1988 35.1228C87.6231 35.1228 87.9671 34.5889 87.9671 33.9303C87.9671 33.2716 87.6231 32.7377 87.1988 32.7377C86.7744 32.7377 86.4304 33.2716 86.4304 33.9303C86.4304 34.5889 86.7744 35.1228 87.1988 35.1228Z" fill="#5D80CB"/>
<path fill-rule="evenodd" clip-rule="evenodd" d="M84.081 27.2822C84.9213 26.6681 85.9499 26.3626 87.1405 26.54C87.4514 26.5863 87.6658 26.8753 87.6194 27.1855C87.573 27.4957 87.2833 27.7096 86.9724 27.6633C86.0996 27.5332 85.3656 27.7512 84.7537 28.1985C84.581 28.3247 84.4322 28.4598 84.3088 28.5935L84.2698 28.6366C84.2281 28.6836 84.1997 28.7191 84.1847 28.7393L84.1792 28.747C83.9992 29.0042 83.6444 29.0671 83.3866 28.8875C83.1289 28.708 83.0659 28.3539 83.2458 28.0968L83.2728 28.0596C83.318 27.9992 83.3841 27.9188 83.4713 27.8243C83.6426 27.6386 83.8457 27.4542 84.081 27.2822Z" fill="#5D80CB"/>
<path fill-rule="evenodd" clip-rule="evenodd" d="M94.2686 26.3711C94.7244 26.2999 95.2082 26.2976 95.6786 26.4136C96.4826 26.6119 97.0928 27.1303 97.3617 27.9987C97.4545 28.2984 97.2863 28.6164 96.9859 28.7089C96.695 28.7986 96.3868 28.6439 96.2834 28.3617L96.2741 28.334C96.1301 27.8691 95.8412 27.6236 95.4054 27.5162C95.1037 27.4418 94.7635 27.4434 94.4446 27.4932L94.3728 27.5053C94.3448 27.5104 94.3223 27.515 94.3059 27.5187L94.286 27.5234C93.9818 27.6024 93.671 27.4203 93.5919 27.1167C93.5128 26.8132 93.6953 26.5032 93.9995 26.4242L94.0429 26.4137C94.0993 26.4007 94.1755 26.3857 94.2686 26.3711Z" fill="#5D80CB"/>
<path fill-rule="evenodd" clip-rule="evenodd" d="M180.488 113.035C180.724 113.035 180.915 113.225 180.915 113.461C180.915 113.687 180.737 113.873 180.513 113.886L180.488 113.886H0.512275C0.276512 113.886 0.0853882 113.696 0.0853882 113.461C0.0853882 113.234 0.263104 113.048 0.487192 113.035L0.512275 113.035H180.488Z" fill="#5D80CB"/>
</svg>
