<svg width="45" height="48" viewBox="0 0 45 48" fill="none" xmlns="http://www.w3.org/2000/svg">
<path d="M11.7188 5.5C10.9728 5.5 10.2575 5.81607 9.73001 6.37868C9.20257 6.94129 8.90625 7.70435 8.90625 8.5V39.5C8.90625 40.2957 9.20257 41.0587 9.73001 41.6213C10.2575 42.1839 10.9728 42.5 11.7188 42.5H22.8562C21.4027 40.3074 20.6214 37.6884 20.6198 35.0029C20.6182 32.3175 21.3962 29.6974 22.8471 27.5027C24.2979 25.308 26.3504 23.6465 28.7223 22.7464C31.0943 21.8463 33.6694 21.7518 36.0938 22.476V8.5C36.0938 7.70435 35.7974 6.94129 35.27 6.37868C34.7425 5.81607 34.0272 5.5 33.2812 5.5H11.7188ZM15.9375 26.5C15.5682 26.5 15.2024 26.4224 14.8612 26.2716C14.52 26.1209 14.2099 25.8999 13.9488 25.6213C13.6876 25.3427 13.4804 25.012 13.3391 24.6481C13.1977 24.2841 13.125 23.894 13.125 23.5C13.125 23.106 13.1977 22.7159 13.3391 22.3519C13.4804 21.988 13.6876 21.6573 13.9488 21.3787C14.2099 21.1001 14.52 20.8791 14.8612 20.7284C15.2024 20.5776 15.5682 20.5 15.9375 20.5C16.6834 20.5 17.3988 20.8161 17.9262 21.3787C18.4537 21.9413 18.75 22.7044 18.75 23.5C18.75 24.2956 18.4537 25.0587 17.9262 25.6213C17.3988 26.1839 16.6834 26.5 15.9375 26.5ZM32.8125 46C35.5475 46 38.1706 44.8411 40.1045 42.7782C42.0385 40.7153 43.125 37.9174 43.125 35C43.125 32.0826 42.0385 29.2847 40.1045 27.2218C38.1706 25.1589 35.5475 24 32.8125 24C30.0775 24 27.4544 25.1589 25.5205 27.2218C23.5865 29.2847 22.5 32.0826 22.5 35C22.5 37.9174 23.5865 40.7153 25.5205 42.7782C27.4544 44.8411 30.0775 46 32.8125 46ZM39.375 35C39.375 35.2652 39.2762 35.5196 39.1004 35.7071C38.9246 35.8946 38.6861 36 38.4375 36H29.4506L32.5387 39.292C32.7148 39.4798 32.8137 39.7344 32.8137 40C32.8137 40.2656 32.7148 40.5202 32.5387 40.708C32.3627 40.8958 32.124 41.0013 31.875 41.0013C31.626 41.0013 31.3873 40.8958 31.2113 40.708L26.5238 35.708C26.4364 35.6151 26.3672 35.5048 26.3199 35.3833C26.2727 35.2618 26.2483 35.1315 26.2483 35C26.2483 34.8685 26.2727 34.7382 26.3199 34.6167C26.3672 34.4952 26.4364 34.3849 26.5238 34.292L31.2113 29.292C31.3873 29.1042 31.626 28.9987 31.875 28.9987C32.124 28.9987 32.3627 29.1042 32.5387 29.292C32.7148 29.4798 32.8137 29.7344 32.8137 30C32.8137 30.2656 32.7148 30.5202 32.5387 30.708L29.4506 34H38.4375C38.6861 34 38.9246 34.1054 39.1004 34.2929C39.2762 34.4804 39.375 34.7348 39.375 35Z" fill="#FED188"/>
</svg>
