<svg width="402" height="227" viewBox="0 0 402 227" fill="none" xmlns="http://www.w3.org/2000/svg">
<path fill-rule="evenodd" clip-rule="evenodd" d="M113.522 227C176.218 227 227.043 176.184 227.043 113.5C227.043 50.8157 176.218 0 113.522 0C50.8254 0 0 50.8157 0 113.5C0 176.184 50.8254 227 113.522 227ZM114.189 197.624C160.29 197.624 197.661 160.259 197.661 114.168C197.661 68.0762 160.29 30.7118 114.189 30.7118C68.0892 30.7118 30.7176 68.0762 30.7176 114.168C30.7176 160.259 68.0892 197.624 114.189 197.624Z" fill="#5D80CB"/>
<path d="M215.64 193.618L157.809 160.235C151.421 156.548 143.253 158.736 139.565 165.123L137.561 168.592C133.873 174.979 136.062 183.145 142.45 186.832L200.281 220.215C206.669 223.902 214.837 221.714 218.525 215.327L220.528 211.858C224.216 205.472 222.028 197.305 215.64 193.618Z" fill="#FDBA4D" fill-opacity="0.8"/>
<path d="M306.279 72.9092V117.318C306.279 122.388 305.137 126.832 302.852 130.65C300.597 134.468 297.326 137.395 293.038 139.429C288.749 141.462 283.678 142.48 277.825 142.48C268.998 142.48 262.143 140.227 257.26 135.721C252.377 131.182 249.936 124.986 249.936 117.13V72.9092H264.444V114.924C264.444 120.213 265.508 124.094 267.637 126.566C269.765 129.038 273.286 130.275 278.201 130.275C282.959 130.275 286.402 129.038 288.53 126.566C290.69 124.062 291.77 120.15 291.77 114.83V72.9092H306.279ZM323.088 141.541V72.9092H337.643V141.541H323.088ZM399.668 141.541H348.583V132.105L381.497 84.9268H349.476V72.9092H398.776V82.2979L365.909 129.524H399.668V141.541Z" fill="#5D80CB"/>
<path d="M266.609 171.663C266.609 173.68 266.248 175.375 265.528 176.744C264.816 178.106 263.768 179.103 262.383 179.736L266.515 184.349H261.854L258.709 180.5H258.439C255.81 180.5 253.79 179.736 252.383 178.211C250.974 176.685 250.27 174.495 250.27 171.639C250.27 168.782 250.974 166.605 252.383 165.102C253.798 163.592 255.826 162.836 258.462 162.836C261.1 162.836 263.115 163.596 264.508 165.113C265.909 166.631 266.609 168.815 266.609 171.663ZM254.084 171.663C254.084 173.579 254.449 175.022 255.175 175.993C255.903 176.962 256.992 177.449 258.439 177.449C261.343 177.449 262.794 175.519 262.794 171.663C262.794 167.797 261.351 165.865 258.462 165.865C257.014 165.865 255.923 166.354 255.187 167.331C254.451 168.302 254.084 169.745 254.084 171.663ZM284.134 163.106V174.209C284.134 175.476 283.848 176.587 283.276 177.542C282.714 178.497 281.895 179.228 280.824 179.736C279.752 180.245 278.485 180.5 277.021 180.5C274.814 180.5 273.1 179.936 271.879 178.809C270.658 177.676 270.048 176.125 270.048 174.162V163.106H273.675V173.611C273.675 174.933 273.941 175.902 274.474 176.521C275.005 177.139 275.886 177.449 277.114 177.449C278.304 177.449 279.164 177.139 279.697 176.521C280.237 175.896 280.507 174.917 280.507 173.587V163.106H284.134ZM288.337 180.265V163.106H291.975V180.265H288.337ZM307.482 180.265H294.71V177.905L302.938 166.111H294.933V163.106H307.259V165.454L299.041 177.26H307.482V180.265Z" fill="#5D80CB"/>
<path d="M326.228 180.265H316.661V163.106H326.228V164.879H318.656V170.406H325.77V172.167H318.656V178.481H326.228V180.265ZM343.447 180.265H341.17L331.792 165.865H331.697C331.822 167.554 331.885 169.104 331.885 170.512V180.265H330.042V163.106H332.296L341.651 177.449H341.745C341.729 177.236 341.695 176.561 341.64 175.418C341.585 174.268 341.565 173.447 341.581 172.953V163.106H343.447V180.265ZM355.714 171.275H361.548V179.62C360.639 179.908 359.717 180.127 358.778 180.277C357.839 180.425 356.75 180.5 355.514 180.5C352.916 180.5 350.893 179.729 349.445 178.187C347.997 176.638 347.273 174.471 347.273 171.685C347.273 169.901 347.63 168.341 348.342 167.003C349.062 165.658 350.095 164.632 351.441 163.929C352.786 163.216 354.364 162.86 356.172 162.86C358.003 162.86 359.709 163.197 361.29 163.87L360.515 165.63C358.965 164.973 357.474 164.644 356.042 164.644C353.952 164.644 352.322 165.267 351.148 166.51C349.974 167.754 349.386 169.48 349.386 171.685C349.386 174.002 349.95 175.758 351.077 176.954C352.212 178.152 353.875 178.75 356.065 178.75C357.255 178.75 358.417 178.614 359.552 178.341V173.059H355.714V171.275ZM365.68 180.265V163.106H367.675V180.265H365.68ZM385.798 180.265H383.521L374.143 165.865H374.048C374.174 167.554 374.237 169.104 374.237 170.512V180.265H372.394V163.106H374.648L384.002 177.449H384.097C384.081 177.236 384.046 176.561 383.991 175.418C383.937 174.268 383.917 173.447 383.933 172.953V163.106H385.798V180.265ZM400.083 180.265H390.517V163.106H400.083V164.879H392.512V170.406H399.627V172.167H392.512V178.481H400.083V180.265Z" fill="#FDBA4D"/>
</svg>
